<svg xmlns="http://www.w3.org/2000/svg" width="24" height="24" fill="none" viewBox="0 0 24 24" id="double-alt-arrow-up"><path fill="url(#paint0_linear_2461_18607)" fill-rule="evenodd" d="M11.5119 6.43056C11.7928 6.18981 12.2072 6.18981 12.4881 6.43056L19.4881 12.4306C19.8026 12.7001 19.839 13.1736 19.5695 13.4881C19.2999 13.8026 18.8264 13.839 18.5119 13.5694L12 7.98781L10.7381 9.06944C10.4236 9.33901 9.95014 9.30259 9.68057 8.98809C9.41101 8.6736 9.44743 8.20012 9.76192 7.93056L11.5119 6.43056ZM7.90279 10.5119C8.17236 10.8264 8.13593 11.2999 7.82144 11.5694L5.48811 13.5694C5.17361 13.839 4.70014 13.8026 4.43057 13.4881C4.161 13.1736 4.19743 12.7001 4.51192 12.4306L6.84525 10.4306C7.15975 10.161 7.63322 10.1974 7.90279 10.5119Z" clip-rule="evenodd"></path><path fill="url(#paint1_linear_2461_18607)" fill-rule="evenodd" d="M11.5119 10.4306C11.7928 10.1898 12.2072 10.1898 12.4881 10.4306L14.2381 11.9306C14.5526 12.2001 14.589 12.6736 14.3195 12.9881C14.0499 13.3026 13.5764 13.339 13.2619 13.0694L12 11.9878L5.48811 17.5694C5.17361 17.839 4.70014 17.8026 4.43057 17.4881C4.16101 17.1736 4.19743 16.7001 4.51192 16.4306L11.5119 10.4306ZM16.0972 14.5119C16.3668 14.1974 16.8403 14.161 17.1548 14.4306L19.4881 16.4306C19.8026 16.7001 19.839 17.1736 19.5695 17.4881C19.2999 17.8026 18.8264 17.839 18.5119 17.5694L16.1786 15.5694C15.8641 15.2999 15.8277 14.8264 16.0972 14.5119Z" clip-rule="evenodd"></path><defs><linearGradient id="paint0_linear_2461_18607" x1="12" x2="12" y1="6.25" y2="17.75" gradientUnits="userSpaceOnUse"><stop stop-color="#854D9C"></stop><stop offset="1" stop-color="#CD4ED3"></stop></linearGradient><linearGradient id="paint1_linear_2461_18607" x1="12" x2="12" y1="6.25" y2="17.75" gradientUnits="userSpaceOnUse"><stop stop-color="#854D9C"></stop><stop offset="1" stop-color="#CD4ED3"></stop></linearGradient></defs></svg>