<svg width="170" height="31" viewBox="0 0 170 31" fill="none" xmlns="http://www.w3.org/2000/svg">
<path d="M9.144 22.484C3.744 22.484 0.72 19.388 0.72 14.204C0.72 9.092 3.96 5.996 9.324 5.996C12.996 5.996 15.444 7.472 15.948 10.604H16.308V6.356H22.644V21.44C22.644 27.92 18.792 30.98 11.808 30.98C5.472 30.98 1.8 28.316 1.8 23.564H8.568C8.568 25.04 8.748 25.4 12.276 25.4C15.192 25.4 15.876 24.968 15.876 21.908V18.092H15.516C15.048 20.72 13.14 22.484 9.144 22.484ZM7.56 14.204C7.56 16.004 8.424 16.688 11.592 16.688C14.616 16.688 15.876 16.328 15.876 14.42V14.168C15.876 12.224 14.616 11.828 11.592 11.828C8.424 11.828 7.56 12.44 7.56 14.204ZM34.9265 24.86C28.7705 24.86 24.4505 22.232 24.4505 15.428C24.4505 9.524 28.7345 5.996 34.7825 5.996C41.0465 5.996 45.0425 9.128 45.0425 14.96C45.0425 15.572 45.0065 16.04 44.9345 16.688H30.7145C30.8225 18.884 31.7945 19.496 34.6745 19.496C37.4105 19.496 38.1305 19.028 38.1305 17.948V17.552H44.8985V17.984C44.8985 22.016 41.0465 24.86 34.9265 24.86ZM34.6385 11.18C32.1545 11.18 31.1105 11.72 30.8225 13.268H38.4905C38.2385 11.72 37.1585 11.18 34.6385 11.18ZM60.4254 24.5H55.6734C51.1374 24.5 48.4374 22.304 48.4374 17.588V11.9H45.7734V6.356H48.4374V3.224H55.2054V6.356H60.4254V11.9H55.2054V16.616C55.2054 18.056 55.6374 18.416 57.1854 18.416H60.4254V24.5Z" fill="white"/>
<path d="M68.8089 24.5H62.0409V0.379999H68.8089V24.5ZM77.7386 4.7H70.9706V0.379999H77.7386V4.7ZM77.7386 24.5H70.9706V6.356H77.7386V24.5ZM86.6683 24.5H79.9003V6.356H86.2363V11.864H86.5963C86.9923 8.84 88.9723 5.996 93.8323 5.996C98.7283 5.996 101.032 8.948 101.032 12.872V24.5H94.2643V15.356C94.2643 12.836 93.3283 12.044 90.3763 12.044C87.3883 12.044 86.6683 12.8 86.6683 15.14V24.5ZM109.801 24.5H103.033V0.379999H109.801V12.656H113.005L117.001 6.356H124.993L118.549 15.176L124.885 24.5H116.893L113.077 18.704H109.801V24.5ZM135.825 24.86C129.669 24.86 125.349 22.232 125.349 15.428C125.349 9.524 129.633 5.996 135.681 5.996C141.945 5.996 145.941 9.128 145.941 14.96C145.941 15.572 145.905 16.04 145.833 16.688H131.613C131.721 18.884 132.693 19.496 135.573 19.496C138.309 19.496 139.029 19.028 139.029 17.948V17.552H145.797V17.984C145.797 22.016 141.945 24.86 135.825 24.86ZM135.537 11.18C133.053 11.18 132.009 11.72 131.721 13.268H139.389C139.137 11.72 138.057 11.18 135.537 11.18ZM155.996 24.86C150.452 24.86 147.392 21.296 147.392 15.428C147.392 9.524 150.38 5.996 155.708 5.996C159.992 5.996 162.008 8.012 162.548 11.036H162.908V0.379999H169.676V24.5H163.34V19.604H162.98C162.404 23.204 160.244 24.86 155.996 24.86ZM154.232 15.428C154.232 17.84 155.312 18.668 158.444 18.668C161.468 18.668 162.908 18.092 162.908 15.464V15.212C162.908 12.656 161.468 12.152 158.444 12.152C155.312 12.152 154.232 13.016 154.232 15.428Z" fill="#D434FE"/>
</svg>
